<svg xmlns="http://www.w3.org/2000/svg" width="1024" height="1024" viewBox="0 0 1024 1024" role="img" aria-label="Shelfy">
  <!-- Keep the macOS icon artwork inside the platform-safe area. -->
  <rect x="100" y="100" width="824" height="824" rx="185" fill="#0f766e"/>
  <g transform="translate(238 219) scale(23.3)" fill="none" stroke="#ffffff" stroke-width="2.35" stroke-linecap="round" stroke-linejoin="round">
    <path d="M15.236 22a3 3 0 0 0-2.2-5"/>
    <path d="M16 20a3 3 0 0 1 3-3h1a2 2 0 0 0 2-2v-2a4 4 0 0 0-4-4V4"/>
    <path d="M18 13h.01"/>
    <path d="M18 6a4 4 0 0 0-4 4 7 7 0 0 0-7 7c0-5 4-5 4-10.5a4.5 4.5 0 1 0-9 0 2.5 2.5 0 0 0 5 0C7 10 3 11 3 17c0 2.8 2.2 5 5 5h10"/>
  </g>
</svg>
